#!OML:ASF E:/inclinewalkrobotboard/Project1/Captureday1/Session1/subject1.ASF
:FULLY-SPECIFIED
:DEGREES
163
root 0 0 0 1.5365410900041327 -3.8620814558077043 1.8550890365396167
lowerback 12.242998454508335 0.9572118693824907 0.02238503998166863
upperback -4.447712944745588 1.2115769778824685 -0.6305970498948953
thorax -11.739132955010625 0.5603201942312838 -0.9346783325033376
lowerneck -6.063158556972616 1.8668585142032328 4.775050182166265
upperneck 18.106017977575775 3.500298146045176 -8.586805072172423
head 6.646259340871066 1.3084004519082955 -3.280449772680633
rclavicle 2.1733559829270583E-15 -6.976549733308972E-16
rhumerus 21.093286004110652 15.635225286089495 -47.813935846381554
rradius 73.28008815869165
rwrist 26.687440837616872
rhand -34.61434188314437 -57.178991860992134
rfingers 7.1250200000000286
rthumb -7.716739351382735 -87.13931716581666
lclavicle -7.320512383288833E-16 -7.471154005048396E-16
lhumerus 23.184676809117455 -14.475170024407182 44.748795481052206
lradius 71.84382552646304
lwrist -22.244136269480677
lhand -45.75714153806045 -71.95087906115893
lfingers 7.1250200000000286
lthumb -18.511274290613784 -42.73380876323583
rfemur -25.100979707225306 -1.9646000148512073 17.74467752293549
rtibia 50.73375452960691
rfoot -34.2234397620413 -18.337647690639628
rtoes -21.730713414536996
lfemur -28.099362281713574 2.185785670476125 -17.222765198784547
ltibia 50.96245341751141
lfoot -35.67357483709812 -0.2245043714669155
ltoes -21.970472920856466
164
root 0 0 0 1.5395772519671755 -3.865867995770233 1.853203861098291
lowerback 12.241205895978874 0.9588747751192259 0.023621959098745093
upperback -4.446975327887526 1.2138586865837944 -0.6305467519397597
thorax -11.737048165513555 0.5614103159691893 -0.9355921826764095
lowerneck -6.065793034380721 1.8662542801148498 4.773643223367502
upperneck 18.105172985795228 3.4993014783474203 -8.584700240078455
head 6.64641169397756 1.3079911198681349 -3.279618152403322
rclavicle 2.181013083457521E-15 -6.908104515085918E-16
rhumerus 21.10405544866004 15.650299327703893 -47.82443661751597
rradius 73.2891445922159
rwrist 26.676228663454797
rhand -34.614612861308984 -57.176142172127854
rfingers 7.1250200000000286
rthumb -7.717039442792599 -87.13735923386997
lclavicle -7.285887491797129E-16 -7.430892082773869E-16
lhumerus 23.184802556493707 -14.47727941109941 44.750276526490424
lradius 71.84455955278291
lwrist -22.24182727031085
lhand -45.75637391409619 -71.9455438164182
lfingers 7.1250200000000286
lthumb -18.510548198702768 -42.72844392523608
rfemur -25.051085446117526 -1.9303379489959136 17.794541453551695
rtibia 50.523764499785244
rfoot -34.36064491097843 -18.341850866552825
rtoes -21.81881939682871
lfemur -28.10652819832027 2.147968352856206 -17.192399727098618
ltibia 50.77480880173984
lfoot -35.745002884599195 -0.16060478250618404
ltoes -22.050003596507388
165
root 0 0 0 1.5425045195893672 -3.871291435428559 1.8508545267654486
lowerback 12.237927710487323 0.9619980217154998 0.025539415585484726
upperback -4.446212956130757 1.2180009310879787 -0.6309636012444705
thorax -11.733968306966446 0.5634157916743778 -0.9375241093309523
lowerneck -6.069371061089173 1.8654352441090334 4.772347924251638
upperneck 18.10808180801636 3.4978409286064958 -8.58276221037636
head 6.647899226240503 1.3073217852838743 -3.278911016571387
rclavicle 2.182977289892952E-15 -6.896066744271294E-16
rhumerus 21.104570924319844 15.652152543444425 -47.826935193441585
rradius 73.2904713506247
rwrist 26.67398414744112
rhand -34.614585406128406 -57.17242627771852
rfingers 7.1250200000000286
rthumb -7.716596987483175 -87.13490607825719
lclavicle -7.2808102113618E-16 -7.231006236706806E-16
lhumerus 23.174414404022087 -14.465255825123636 44.749230972013166
lradius 71.83512557240762
lwrist -22.2461100040724
lhand -45.75300311736807 -71.94320600982361
lfingers 7.1250200000000286
lthumb -18.507101888613075 -42.726340438453164
rfemur -24.975156264869298 -1.9056540329196228 17.832772434595036
rtibia 50.38386844697024
rfoot -34.4423423537705 -18.327582568487035
rtoes -21.907394740891153
lfemur -28.09773732936047 2.1150152144454695 -17.14403438496087
ltibia 50.659947039628946
lfoot -35.69127568072499 -0.16562054762440725
ltoes -22.135622467811295
166
root 0 0 0 1.5427925356830174 -3.8712119219571752 1.8498625770224035
lowerback 12.237983016111468 0.9620073944719043 0.026420089766999832
upperback -4.4461043123396955 1.218129877990995 -0.6306463530471885
thorax -11.733838481043254 0.5634550687150067 -0.9377140409618832
lowerneck -6.069844145486225 1.8656320659234777 4.772627388417556
upperneck 18.108908879260717 3.4981993292326203 -8.58345350483611
head 6.648239326525243 1.3074281079612184 -3.2791594892442353
rclavicle 2.1753798171044512E-15 -6.944358626624574E-16
rhumerus 21.100506338901653 15.644830430884836 -47.82032653787529
rradius 73.28659813327468
rwrist 26.680564694744156
rhand -34.61518589502454 -57.17710247085662
rfingers 7.1250200000000286
rthumb -7.717561921944476 -87.138905803717
lclavicle -7.320729828098471E-16 -7.405577013355113E-16
lhumerus 23.17316165252283 -14.460759118606992 44.74770478773992
lradius 71.83204396560612
lwrist -22.248982607971875
lhand -45.75342280595762 -71.94765114166172
lfingers 7.1250200000000286
lthumb -18.50756903117765 -42.730945604150406
rfemur -24.93843536064997 -1.910243912962736 17.835371553179634
rtibia 50.40618841409263
rfoot -34.43049796151334 -18.30473704243139
rtoes -21.947185080296528
lfemur -28.09248440647646 2.106310995567374 -17.124433238259506
ltibia 50.67305431413522
lfoot -35.63376962686276 -0.20240054641702399
ltoes -22.171056480662692
167
root 0 0 0 1.5422561234714456 -3.871015619039137 1.849640912637316
lowerback 12.23794961180378 0.9621460099605983 0.0268169660108607
upperback -4.44618878538426 1.2183304078105301 -0.6306797780168353
thorax -11.733916710317725 0.5635498291946945 -0.937977081564666
lowerneck -6.069747804679761 1.8657469208096968 4.773013915805621
upperneck 18.110189274209457 3.498374488941022 -8.584111003762212
head 6.64862212656553 1.3074699836407535 -3.2794254857231904
rclavicle 2.1647966318848484E-15 -7.027027968159283E-16
rhumerus 21.09383391530625 15.635054669397844 -47.813039292863735
rradius 73.2812129419628
rwrist 26.688205386588855
rhand -34.61539917928796 -57.179274824360284
rfingers 7.1250200000000286
rthumb -7.717748031462843 -87.14103738559945
lclavicle -7.389951734563324E-16 -7.449027382795366E-16
lhumerus 23.168662317673906 -14.453312174330563 44.74585111441
lradius 71.82704078751746
lwrist -22.25301224030889
lhand -45.75285132291455 -71.95182167395276
lfingers 7.1250200000000286
lthumb -18.50694847903651 -42.73525223839643
rfemur -24.920748663331455 -1.9216706574615676 17.82310031480877
rtibia 50.47749531009681
rfoot -34.380502644212896 -18.286623878780176
rtoes -21.95279085052279
lfemur -28.083278683894285 2.111535140289109 -17.11595218818103
ltibia 50.737717290516606
lfoot -35.552815928896656 -0.25336503045152625
ltoes -22.17206631498916
